<?xml version="1.0" encoding="utf-8"?>
<!-- Generator: Adobe Illustrator 18.1.1, SVG Export Plug-In . SVG Version: 6.00 Build 0)  -->
<svg version="1.1" id="Layer_1" xmlns="http://www.w3.org/2000/svg" xmlns:xlink="http://www.w3.org/1999/xlink" x="0px" y="0px"
	 viewBox="-189 271 220 60" enable-background="new -189 271 220 60" xml:space="preserve">
<g id="Layer_1_1_" display="none">
	<g display="inline">
		<g>
			<path fill="#00FF74" d="M85.7,686.3c0,1.5-0.1,2.9-0.4,4.2c-0.2,1.2-0.6,2.3-1.3,3.2c-0.6,0.9-1.5,1.6-2.6,2.1
				c-1.1,0.5-2.4,0.7-4.2,0.7c-1,0-2.1-0.2-3.1-0.6l0.6-3.4c0.9,0.4,1.7,0.5,2.4,0.5c1,0,1.8-0.1,2.4-0.5c0.6-0.4,1.1-0.9,1.3-1.3
				c0.4-0.6,0.5-1.2,0.6-2c0.1-0.7,0.1-1.6,0.1-2.4v-34.9h3.8v34.5H85.7z M81,644c0-0.9,0.2-1.5,0.9-2.1c0.6-0.5,1.2-0.7,2.1-0.7
				c0.7,0,1.5,0.2,2,0.9c0.5,0.5,0.9,1.2,0.9,2.1c0,0.7-0.2,1.3-0.9,2c-0.5,0.5-1.2,0.9-2,0.9c-0.9,0-1.5-0.4-2.1-0.9
				C81.3,645.5,81,644.8,81,644z"/>
			<path fill="#00FF74" d="M91.9,644c0-0.9,0.2-1.5,0.9-2.1c0.5-0.5,1.2-0.7,2-0.7c0.9,0,1.5,0.2,2.1,0.9c0.5,0.5,0.9,1.2,0.9,2.1
				c0,0.9-0.2,1.5-0.9,2.1c-0.5,0.5-1.2,0.9-2.1,0.9s-1.5-0.2-2.1-0.9C92.1,645.5,91.9,644.8,91.9,644z M92.8,651.8h3.8v29.4h-3.8
				V651.8z"/>
			<path fill="#00FF74" d="M100.7,651.8h4.3l9.8,25.2l9.5-25.2h3.9l-11.5,29.4h-3.9L100.7,651.8z"/>
			<path fill="#00FF74" d="M156,675.7c-1.5,2.2-3.3,3.8-5.5,4.8c-2.2,1-4.5,1.5-7.2,1.5c-2.2,0-4.3-0.4-6.1-1.1
				c-1.8-0.7-3.4-1.8-4.7-3.2c-1.3-1.3-2.3-3.1-3.1-4.9c-0.7-1.8-1.1-3.9-1.1-6.2c0-2.2,0.4-4.3,1.1-6.1c0.7-1.8,1.7-3.4,3.1-4.9
				c1.3-1.3,2.8-2.4,4.7-3.2c1.8-0.7,3.8-1.2,5.9-1.2c2.2,0,4.3,0.4,6,1.2c1.7,0.7,3.2,1.8,4.3,3.1c1.2,1.3,2.1,2.8,2.7,4.4
				c0.6,1.6,0.9,3.3,0.9,5v2.7h-24.6c0,0.9,0.1,1.8,0.5,3.1c0.4,1.2,0.9,2.4,1.7,3.7c0.9,1.2,2,2.2,3.4,3.1c1.5,0.9,3.3,1.2,5.5,1.2
				c2,0,3.8-0.5,5.6-1.3c1.8-1,3.2-2.2,4.2-3.8L156,675.7z M153.2,664.1c0-1.3-0.2-2.6-0.9-3.7c-0.5-1.1-1.2-2.2-2.2-3.1
				c-0.9-0.9-2-1.6-3.3-2.1c-1.2-0.5-2.6-0.7-3.9-0.7c-2.1,0-3.8,0.4-5.1,1.2c-1.3,0.9-2.4,1.8-3.3,2.9c-0.9,1.1-1.3,2.2-1.7,3.2
				c-0.4,1-0.5,1.7-0.5,2.1h20.9L153.2,664.1L153.2,664.1z"/>
		</g>
	</g>
</g>
<g id="Layer_3">
	<path fill="#FFFFFF" d="M-37,282.9l-5.5-7.2h2.8l4.1,5.7l4-5.7h2.6l-5.4,7.1l6,7.8h-2.8l-4.4-6.3l-4.5,6.3h-2.6L-37,282.9z"/>
	<g>
		<g>
			<path fill="#FFFFFF" d="M-111.6,319c0,1.3-0.1,2.6-0.3,3.7c-0.2,1.1-0.5,2.1-1.2,2.8c-0.5,0.8-1.3,1.4-2.3,1.8
				c-1,0.4-2.2,0.6-3.7,0.6c-0.9,0-1.8-0.2-2.7-0.5l0.5-3c0.8,0.3,1.5,0.4,2.2,0.4c0.9,0,1.6-0.1,2.2-0.4c0.5-0.3,1-0.8,1.2-1.2
				c0.3-0.5,0.4-1.1,0.5-1.7c0.1-0.6,0.1-1.4,0.1-2.2v-30.8h3.4V319H-111.6L-111.6,319z M-115.8,281.7c0-0.8,0.2-1.3,0.8-1.8
				c0.4-0.4,1.1-0.8,1.8-0.8c0.8,0,1.3,0.2,1.8,0.8c0.4,0.4,0.8,1.1,0.8,1.8c0,0.8-0.2,1.3-0.8,1.8c-0.5,0.4-1.2,0.6-1.8,0.6
				c-0.8,0-1.3-0.2-1.8-0.8C-115.5,283-115.8,282.4-115.8,281.7z"/>
			<path fill="#FFFFFF" d="M-106.2,281.7c0-0.8,0.2-1.3,0.8-1.8c0.4-0.4,1.1-0.8,1.8-0.8c0.8,0,1.3,0.2,1.8,0.8
				c0.4,0.4,0.8,1.1,0.8,1.8c0,0.8-0.2,1.3-0.8,1.8c-0.4,0.4-1.1,0.8-1.8,0.8c-0.8,0-1.3-0.2-1.8-0.8
				C-105.9,283-106.2,282.4-106.2,281.7z M-105.3,288.5h3.4v26h-3.4V288.5z"/>
			<path fill="#FFFFFF" d="M-98.4,288.5h3.8l8.7,22.3l8.4-22.3h3.5l-10.2,26h-3.5L-98.4,288.5z"/>
			<path fill="#FFFFFF" d="M-49.5,309.6c-1.3,1.9-2.9,3.4-4.9,4.2c-1.9,0.9-4,1.3-6.4,1.3c-1.9,0-3.8-0.3-5.4-1
				c-1.6-0.6-3-1.6-4.1-2.8c-1.2-1.2-2.1-2.7-2.7-4.3c-0.6-1.6-1-3.5-1-5.5c0-1.9,0.3-3.8,1-5.4c0.6-1.6,1.5-3,2.7-4.3
				c1.2-1.2,2.5-2.2,4.1-2.8c1.6-0.6,3.4-1.1,5.2-1.1c1.9,0,3.8,0.3,5.3,1.1c1.5,0.6,2.8,1.6,3.8,2.7c1.1,1.2,1.8,2.5,2.4,3.9
				c0.5,1.4,0.8,2.9,0.8,4.4v2.4h-21.7c0,0.8,0.1,1.6,0.4,2.7s0.8,2.2,1.5,3.2c0.8,1.1,1.7,1.9,3,2.7c1.3,0.8,2.9,1.1,4.9,1.1
				c1.7,0,3.4-0.4,5-1.2c1.6-0.9,2.8-1.9,3.7-3.4L-49.5,309.6z M-52,299.4c0-1.2-0.2-2.3-0.8-3.2c-0.4-1-1.1-1.9-1.9-2.7
				c-0.8-0.8-1.7-1.4-2.9-1.8c-1.1-0.4-2.3-0.6-3.5-0.6c-1.8,0-3.4,0.3-4.5,1.1c-1.2,0.8-2.2,1.6-2.9,2.6c-0.8,1-1.2,1.9-1.5,2.8
				c-0.3,0.9-0.4,1.5-0.4,1.8H-52L-52,299.4L-52,299.4z"/>
		</g>
	</g>
</g>
</svg>
