<?xml version="1.0" encoding="utf-8"?>
<!-- Generator: Adobe Illustrator 18.1.1, SVG Export Plug-In . SVG Version: 6.00 Build 0)  -->
<svg version="1.1" id="Layer_1" xmlns="http://www.w3.org/2000/svg" xmlns:xlink="http://www.w3.org/1999/xlink" x="0px" y="0px"
	 viewBox="-189 271 220 60" enable-background="new -189 271 220 60" xml:space="preserve">
<g>
	<path fill="#FFFFFF" d="M-41.9,276c0,0.4,0.1,0.9,0.1,1.3c0,0.5,0,0.9,0,1.2h0.1c0.4-0.9,1.1-1.6,2.1-2.1c1-0.5,2-0.8,3.1-0.8
		c1.9,0,3.3,0.6,4.3,1.7c1,1.1,1.4,2.6,1.4,4.5v9.2h-2.2v-8.3c0-0.8-0.1-1.5-0.2-2.2c-0.1-0.6-0.3-1.2-0.7-1.7
		c-0.3-0.5-0.7-0.8-1.3-1.1c-0.5-0.3-1.2-0.4-2-0.4c-0.6,0-1.1,0.1-1.7,0.4c-0.5,0.2-1,0.6-1.5,1.1c-0.4,0.5-0.8,1.1-1,1.8
		c-0.3,0.7-0.4,1.6-0.4,2.6v7.7h-2.2v-11.7c0-0.4,0-0.9,0-1.6c0-0.6-0.1-1.2-0.1-1.7L-41.9,276L-41.9,276z"/>
	<path fill="#FFFFFF" d="M-113,319.4c0,1.4-0.1,2.6-0.3,3.7c-0.2,1.1-0.6,2-1.2,2.8c-0.6,0.8-1.3,1.4-2.3,1.8
		c-1,0.4-2.2,0.6-3.7,0.6c-0.9,0-1.8-0.2-2.7-0.5l0.5-3c0.8,0.3,1.5,0.5,2.1,0.5c0.9,0,1.6-0.2,2.2-0.5c0.5-0.3,1-0.7,1.2-1.2
		c0.3-0.5,0.5-1.1,0.6-1.8c0.1-0.7,0.1-1.4,0.1-2.1v-30.9h3.4L-113,319.4L-113,319.4z M-117.2,281.9c0-0.7,0.2-1.3,0.7-1.8
		c0.5-0.5,1.1-0.7,1.8-0.7s1.3,0.2,1.8,0.7c0.5,0.5,0.7,1.1,0.7,1.8c0,0.7-0.2,1.3-0.7,1.8c-0.5,0.5-1.1,0.7-1.8,0.7
		c-0.7,0-1.3-0.2-1.8-0.7C-117,283.2-117.2,282.6-117.2,281.9"/>
	<path fill="#FFFFFF" d="M-107.6,281.9c0-0.7,0.2-1.3,0.7-1.8c0.5-0.5,1.1-0.7,1.8-0.7c0.7,0,1.3,0.2,1.8,0.7
		c0.5,0.5,0.7,1.1,0.7,1.8c0,0.7-0.2,1.3-0.7,1.8c-0.5,0.5-1.1,0.7-1.8,0.7s-1.3-0.2-1.8-0.7C-107.4,283.2-107.6,282.6-107.6,281.9
		 M-106.8,288.8h3.4v26.1h-3.4V288.8z"/>
	<polygon fill="#FFFFFF" points="-99.7,288.8 -95.9,288.8 -87.2,311.2 -78.7,288.8 -75.3,288.8 -85.5,314.9 -89,314.9 	"/>
	<path fill="#FFFFFF" d="M-50.5,309.9c-1.3,2-2.9,3.4-4.9,4.3c-1.9,0.9-4.1,1.3-6.4,1.3c-2,0-3.8-0.3-5.4-1c-1.6-0.7-3-1.6-4.2-2.8
		c-1.2-1.2-2.1-2.7-2.7-4.3c-0.6-1.7-0.9-3.5-0.9-5.6c0-2,0.3-3.8,1-5.4c0.6-1.7,1.5-3.1,2.7-4.3c1.2-1.2,2.5-2.2,4.1-2.9
		c1.6-0.7,3.3-1,5.3-1c2,0,3.8,0.3,5.3,1c1.5,0.7,2.8,1.6,3.8,2.8c1,1.1,1.8,2.5,2.3,3.9c0.5,1.5,0.8,3,0.8,4.5v2.4h-21.9
		c0,0.7,0.1,1.6,0.4,2.7c0.3,1.1,0.8,2.2,1.6,3.2c0.7,1.1,1.8,2,3,2.7c1.3,0.8,2.9,1.1,4.9,1.1c1.7,0,3.4-0.4,5-1.2
		c1.6-0.8,2.9-2,3.7-3.4L-50.5,309.9z M-53.1,299.6c0-1.2-0.2-2.3-0.7-3.3c-0.5-1-1.1-1.9-1.9-2.7c-0.8-0.8-1.8-1.4-2.9-1.8
		c-1.1-0.5-2.3-0.7-3.5-0.7c-1.8,0-3.4,0.4-4.6,1.1c-1.2,0.8-2.2,1.6-2.9,2.6c-0.7,1-1.2,1.9-1.5,2.9c-0.3,0.9-0.5,1.6-0.5,1.9
		L-53.1,299.6L-53.1,299.6z"/>
</g>
</svg>
