<?xml version="1.0" encoding="UTF-8"?>
<svg width="152px" height="30px" viewBox="0 0 152 30" version="1.1" xmlns="http://www.w3.org/2000/svg" xmlns:xlink="http://www.w3.org/1999/xlink">
    <!-- Generator: sketchtool 40.3 (33839) - http://www.bohemiancoding.com/sketch -->
    <title>9BCE2508-52C6-4555-8946-D8065A4C9715</title>
    <desc>Created with sketchtool.</desc>
    <defs></defs>
    <g id="Design" stroke="none" stroke-width="1" fill="none" fill-rule="evenodd">
        <g id="highres-vs-low-res" transform="translate(-26.000000, -44.000000)" fill="#FFFFFF">
            <g id="std-logo" transform="translate(26.000000, 44.000000)">
                <g id="Asset-1">
                    <g id="Layer_2">
                        <g id="Layer_1-2">
                            <g id="Group">
                                <g transform="translate(55.554238, 0.000000)" id="Shape">
                                    <path d="M28.2758447,27.3978947 C27.82131,28.9515789 26.8364849,29.1789474 26.2304386,29.1789474 C25.6243924,29.1789474 24.6521932,28.9515789 24.1850326,27.3978947 L17.8215471,6 L17.7457913,6 L11.3823059,27.4105263 C10.9277712,28.9642105 9.94294606,29.1915789 9.33689982,29.1915789 C8.73085359,29.1915789 7.75865442,28.9642105 7.29149378,27.4105263 L0.246206283,3.86526316 C0.17050546,3.63278588 0.132150825,3.38976514 0.132572614,3.14526316 C0.134706573,2.78084205 0.285571817,2.43311412 0.550199086,2.18267969 C0.814826354,1.93224526 1.17023867,1.80084898 1.53405453,1.81894737 C1.98858921,1.81894737 2.59463545,2.00842105 2.89765857,3.03157895 L9.33689982,25.1621053 L9.4126556,25.1621053 L15.8518969,3.6 C16.3064315,2.04631579 17.2155009,1.81894737 17.8215471,1.81894737 C18.4275934,1.81894737 19.3366627,2.04631579 19.7911974,3.6 L26.2304386,25.1621053 L26.3061944,25.1621053 L32.6696799,3.03157895 C32.985329,1.97052632 33.654505,1.81894737 34.0711618,1.81894737 C34.4370268,1.80457653 34.7922737,1.94368513 35.0511786,2.20270523 C35.3100835,2.46172533 35.4491303,2.81713016 35.4347659,3.18315789 C35.4221908,3.41402781 35.3840803,3.64279248 35.3211322,3.86526316 L28.2758447,27.3978947 Z"></path>
                                    <path d="M43.2249852,29.3684211 C37.7326912,29.3684211 33.7933906,25.3894737 33.7933906,20.0463158 C33.7933906,14.7031579 37.7326912,10.7368421 43.2249852,10.7368421 C48.7172792,10.7368421 52.6944576,14.7157895 52.6944576,20.0589474 C52.6944576,25.4021053 48.7551571,29.3684211 43.2249852,29.3684211 L43.2249852,29.3684211 Z M43.2249852,12.8842105 C39.1215471,12.8842105 36.5205987,16.0673684 36.5205987,20.0463158 C36.5205987,24.0252632 39.1404861,27.1578947 43.2249852,27.1578947 C47.3094843,27.1578947 49.9672496,24 49.9672496,20.0336842 C49.9672496,16.0673684 47.3473622,12.8842105 43.2249852,12.8842105 L43.2249852,12.8842105 Z"></path>
                                    <path d="M56.9872851,29.1789474 C56.5706283,29.1789474 55.6994369,28.9894737 55.6994369,27.7768421 L55.6994369,15.0821053 C55.6994369,14.4 55.661559,12.8463158 55.6236811,12.24 C55.5763857,11.8959568 55.6845159,11.5486944 55.9187467,11.2923905 C56.1529775,11.0360866 56.4890325,10.8973053 56.8357736,10.9136842 C57.2524303,10.9136842 58.047866,11.0652632 58.0983699,12.24 L58.1741257,14.2105263 L58.2498814,14.2105263 C59.329815,12.0662918 61.5316416,10.7201326 63.9315649,10.7368421 C64.3038777,10.7202744 64.676096,10.7716377 65.0300237,10.8884211 C65.4655049,11.0383284 65.7556858,11.4508741 65.7497036,11.9115789 C65.7497036,12.7452632 65.1815353,13.1747368 64.3482217,13.1747368 C63.9694428,13.1747368 63.7421755,13.1368421 63.4770302,13.1368421 C60.7498222,13.1368421 58.2877593,15.1073684 58.2877593,19.8442105 L58.2877593,27.7894737 C58.2751334,28.9894737 57.4039419,29.1789474 56.9872851,29.1789474 L56.9872851,29.1789474 Z"></path>
                                    <path d="M81.9866924,27.8526316 C81.9954424,28.2070036 81.8585798,28.5494673 81.608036,28.8001226 C81.3574922,29.0507779 81.0151806,29.1877013 80.6609662,29.1789474 C80.395821,29.1789474 80.0927979,29.1410526 79.6003853,28.6863158 L70.2066686,19.5789474 L70.093035,19.5789474 L70.093035,27.7894737 C70.093035,29.0021053 69.2218435,29.1915789 68.8051867,29.1915789 C68.3885299,29.1915789 67.5173385,29.0021053 67.5173385,27.7894737 L67.5173385,1.40210526 C67.5173385,0.189473684 68.3885299,0 68.8114997,0 C69.2344695,0 70.099348,0.189473684 70.099348,1.40210526 L70.099348,19.1747368 L70.2129816,19.1747368 L78.8491405,11.3305263 C79.103594,11.0809596 79.440263,10.9327593 79.7960877,10.9136842 C80.1267055,10.8980744 80.4492006,11.0191179 80.6879695,11.248438 C80.9267384,11.4777581 81.0607849,11.7951895 81.0586841,12.1263158 C81.0493026,12.5415117 80.8547738,12.9307423 80.5283936,13.1873684 L73.4262893,19.2884211 L81.4564019,26.7915789 C81.7800077,27.0504591 81.9738438,27.4383037 81.9866924,27.8526316 L81.9866924,27.8526316 Z"></path>
                                    <path d="M89.7137819,12.8842105 C87.8577653,12.8842105 85.9638708,13.68 85.9638708,15.6505263 C85.9638708,17.3178947 87.2895969,18.0757895 90.2061944,18.6821053 C94.3727623,19.5536842 96.3424126,21.1073684 96.3424126,23.8736842 C96.3424126,27.9284211 92.9334025,29.3684211 89.675904,29.3684211 C87.3274748,29.3684211 85.1305572,28.5726316 83.5396858,26.9810526 C83.2458085,26.7034896 83.0695623,26.3237137 83.0472733,25.92 C83.0366215,25.5952404 83.1608999,25.2805723 83.3905611,25.0508089 C83.6202223,24.8210456 83.9347505,24.6967119 84.2593657,24.7073684 C84.6885977,24.7357756 85.0866142,24.9417378 85.3578245,25.2757895 C86.4576279,26.4795673 88.0142059,27.1630232 89.6443391,27.1578947 C91.8538826,27.1578947 93.8109069,26.3621053 93.8109069,24.0505263 C93.8109069,22.1936842 91.9548903,21.4357895 88.5837582,20.64 C86.4878483,20.16 83.5018079,19.2631579 83.5018079,15.8778947 C83.5018079,12.2778947 86.6077949,10.7242105 89.8147896,10.7242105 C91.8110621,10.707551 93.7354926,11.4686054 95.1808239,12.8463158 C95.4815252,13.102879 95.6602804,13.4743049 95.6732365,13.8694737 C95.6784108,14.1825915 95.5563615,14.4844075 95.335022,14.7058455 C95.1136824,14.9272835 94.8120006,15.0493871 94.4990219,15.0442105 C94.1138108,15.0348648 93.7527967,14.8542775 93.5141968,14.5515789 C92.5446792,13.4767258 91.1608594,12.869598 89.7137819,12.8842105 L89.7137819,12.8842105 Z"></path>
                                </g>
                                <path d="M1.28153527,24.6315789 C1.65798367,25.7243545 2.33927005,26.6864694 3.24487255,27.4042105 C4.16805226,28.1307631 5.31549603,28.51267 6.48974511,28.4842105 C7.39629445,28.5115781 8.29607302,28.3198433 9.11278897,27.9252632 C9.80598428,27.5742958 10.4022029,27.0580662 10.8488589,26.4221053 C11.3065637,25.7384752 11.628092,24.9728975 11.7958062,24.1673684 C12.0074234,23.2444988 12.1133218,22.3005245 12.1114552,21.3536842 L12.1114552,1.77473684 L13.5097807,1.77473684 L13.5097807,21.4989474 C13.5160696,22.5779849 13.3823809,23.6532778 13.1120628,24.6978947 C12.8758503,25.6421543 12.4600352,26.5320512 11.8873444,27.3189474 C11.3261654,28.070019 10.5948765,28.6771722 9.75355661,29.0905263 C8.76720557,29.5530928 7.68591402,29.7770197 6.5970658,29.7442105 C5.06578966,29.791781 3.56397644,29.3161995 2.33895969,28.3957895 C1.23001228,27.565607 0.411437038,26.4062718 0,25.0831579 L1.28153527,24.6315789 Z" id="Shape"></path>
                                <path d="M20.264671,5.36842105 C20.2801966,5.71375687 20.1495642,6.04965452 19.9048311,6.29368421 C19.7028686,6.50377949 19.4259374,6.62527461 19.1346473,6.63157895 C18.8226377,6.63293829 18.5237189,6.50624082 18.3076467,6.28105263 C18.071656,6.0375888 17.9470855,5.7071587 17.9635892,5.36842105 C17.94568,5.03414344 18.0707869,4.708032 18.3076467,4.47157895 C18.5202409,4.25119237 18.8127271,4.12594804 19.1188648,4.12421053 C19.4127191,4.13181509 19.6912669,4.25693299 19.8922051,4.47157895 C20.1395016,4.70302656 20.2752118,5.02979622 20.264671,5.36842105 L20.264671,5.36842105 Z M19.8511707,29.0526316 L18.4528453,29.0526316 L18.4528453,11.2515789 L19.8480142,11.2515789 L19.8511707,29.0526316 Z" id="Shape"></path>
                                <polygon id="Shape" points="30.4159455 29.0526316 28.7935092 29.0526316 21.8492294 11.2547368 23.358032 11.2547368 29.5857884 27.6252632 29.6710136 27.6252632 35.7472584 11.2515789 37.2181832 11.2515789"></polygon>
                                <path d="M46.6055868,29.5515789 C45.3863891,29.5646301 44.1779224,29.3226141 43.0576912,28.8410526 C41.9984917,28.3835376 41.0468773,27.7090431 40.2641968,26.8610526 C39.4657635,25.9851631 38.8498247,24.9588575 38.4523711,23.8421053 C38.0176442,22.6147223 37.8039029,21.3199429 37.8210729,20.0178947 C37.8095466,18.7505821 38.0343433,17.4922316 38.483936,16.3073684 C38.8912864,15.2225055 39.5007529,14.2248505 40.2799793,13.3673684 C41.8232711,11.684274 44.0038046,10.7293647 46.2867813,10.7368421 C47.52253,10.7121871 48.7480077,10.9658098 49.8725548,11.4789474 C51.8402774,12.3899066 53.3309455,14.0911712 53.9759929,16.1621053 C54.3154663,17.2031063 54.4880534,18.2913147 54.4873444,19.3863158 C54.4873444,19.5147368 54.4810314,19.6557895 54.4684055,19.8094737 C54.4684055,19.9642105 54.4494665,20.1031579 54.4494665,20.2326316 L39.2036159,20.2326316 C39.2021921,21.2588156 39.3674302,22.2784145 39.692872,23.2515789 C40.0022751,24.2005937 40.4814228,25.0854852 41.1069798,25.8631579 C42.4450772,27.5143899 44.4753161,28.4482483 46.5992739,28.3894737 C47.8352598,28.420002 49.0579264,28.1283468 50.1471695,27.5431579 C51.1819946,26.9540038 52.0922254,26.1688621 52.8270302,25.2315789 L53.7739775,26.04 C52.1012857,28.3116729 49.4249395,29.6227344 46.6055868,29.5515789 L46.6055868,29.5515789 Z M53.0984884,19.0736842 C53.0847553,18.0800316 52.9000299,17.0961718 52.5524155,16.1652632 C52.2403008,15.3234586 51.7663124,14.5510074 51.1572466,13.8915789 C50.5583889,13.256722 49.8308975,12.7571566 49.0234588,12.4263158 C48.1488352,12.0705501 47.2119198,11.8933911 46.2678423,11.9052632 C45.1963852,11.8762864 44.1358143,12.1265837 43.1902638,12.6315789 C42.3618912,13.0942591 41.6300159,13.711752 41.0343806,14.4505263 C40.4693704,15.1462382 40.0293485,15.9347833 39.7339063,16.7810526 C39.4645116,17.5177442 39.306009,18.2903889 39.2635892,19.0736842 L53.0984884,19.0736842 Z" id="Shape"></path>
                            </g>
                        </g>
                    </g>
                </g>
            </g>
        </g>
    </g>
</svg>